<svg version="1.1" id="Layer_1" xmlns="http://www.w3.org/2000/svg" xmlns:xlink="http://www.w3.org/1999/xlink" x="0px" y="0px"
	 width="100%" viewBox="0 0 200 82" enable-background="new 0 0 200 82" xml:space="preserve">
<path fill="none" opacity="1.000000" stroke="#000000" stroke-linecap="round" stroke-linejoin="round" stroke-width="6.000000"
	d="
M193.500000,6.500000 
	C131.249893,6.500000 68.999779,6.500000 6.625000,6.500000 
	C6.625000,30.582750 6.625000,54.416374 6.625000,78.250000 
	C69.333778,78.250000 132.167221,78.250000 195.175232,78.250000 
	C195.293396,76.339783 195.484863,74.669983 195.486557,72.999985 
	C195.507233,52.666676 195.513550,32.333309 195.477982,12.000038 
	C195.474609,10.076009 196.169449,7.878030 194.000000,6.500000 
"/>
<path fill="none" opacity="1.000000" stroke="#000000" stroke-linecap="round" stroke-linejoin="round" stroke-width="3.000000"
	d="
M138.500000,59.500000 
	C140.756561,61.217205 143.090622,61.937077 146.019638,61.066051 
	C149.218826,60.114685 150.595383,58.249760 150.518646,54.999561 
	C150.436066,51.501511 150.605164,47.995804 150.465744,44.501366 
	C150.359940,41.849625 151.877182,38.513145 147.014801,37.885323 
	C142.972580,37.363392 140.220154,38.001106 138.442307,41.974182 
	C137.068375,45.044548 136.910980,47.763672 138.993561,50.504890 
	C141.083374,53.255634 143.592453,54.466621 147.009750,53.023098 
	C147.776642,52.699150 148.666672,52.666668 149.500000,52.500004 
"/>
<path fill="none" opacity="1.000000" stroke="#000000" stroke-linecap="round" stroke-linejoin="round" stroke-width="3.000000"
	d="
M71.000000,40.500000 
	C69.704010,37.613533 67.143761,37.237255 64.507416,37.560467 
	C62.591640,37.795338 60.725853,38.628422 60.517239,41.001514 
	C60.332222,43.106232 61.718086,43.803246 63.439545,44.626427 
	C64.483612,45.125687 65.609673,45.124611 66.451904,45.587509 
	C68.521362,46.724892 71.477432,47.690857 70.434059,50.979076 
	C69.684601,53.341026 64.925812,54.589199 62.573223,52.898136 
	C61.256050,51.951340 59.922894,51.487541 58.500000,51.000000 
"/>
<path fill="none" opacity="1.000000" stroke="#000000" stroke-linecap="round" stroke-linejoin="round" stroke-width="4.000000"
	d="
M102.500000,27.500000 
	C105.964485,28.079233 106.746735,30.157446 106.587074,33.504154 
	C106.285614,39.823105 106.500000,46.166668 106.500000,52.500000 
"/>
<path fill="none" opacity="1.000000" stroke="#000000" stroke-linecap="round" stroke-linejoin="round" stroke-width="3.000000"
	d="
M28.000000,32.500000 
	C28.000000,37.333332 27.969389,42.166908 28.007593,46.999939 
	C28.057571,53.322124 28.259027,53.500000 34.500000,53.500000 
"/>
<path fill="none" opacity="1.000000" stroke="#000000" stroke-linecap="round" stroke-linejoin="round" stroke-width="4.000000"
	d="
M40.500000,44.500000 
	C43.833332,44.500000 47.166843,44.515026 50.499725,44.476414 
	C50.827698,44.472614 51.151859,44.139862 51.496738,43.949322 
	C51.170189,38.874264 49.995926,37.486500 46.000000,37.500000 
	C42.218056,37.512779 40.095913,39.988613 40.000004,44.500000 
	C39.812874,53.302097 43.829033,55.812202 52.000000,52.000000 
"/>
<path fill="none" opacity="1.000000" stroke="#000000" stroke-linecap="round" stroke-linejoin="round" stroke-width="4.000000"
	d="
M80.000000,32.500000 
	C79.833328,38.166668 79.453522,43.838608 79.593628,49.497681 
	C79.659599,52.162605 81.405594,53.951344 84.500000,53.500000 
"/>
<path fill="none" opacity="1.000000" stroke="#000000" stroke-linecap="round" stroke-linejoin="round" stroke-width="4.000000"
	d="
M98.500000,44.000000 
	C95.546204,44.998348 92.497505,44.288395 89.500000,44.500000 
"/>
<path fill="none" opacity="1.000000" stroke="#000000" stroke-linecap="round" stroke-linejoin="round" stroke-width="3.000000"
	d="
M33.500000,38.000000 
	C30.500000,38.000000 27.500000,38.000000 24.500000,38.000000 
"/>
<path fill="none" opacity="1.000000" stroke="#000000" stroke-linecap="round" stroke-linejoin="round" stroke-width="3.000000"
	d="
M85.500000,38.000000 
	C82.171501,37.736721 78.787498,38.583412 75.500000,37.500000 
"/>
<path fill="none" opacity="1.000000" stroke="#000000" stroke-linecap="round" stroke-linejoin="round" stroke-width="4.000000"
	d="
M110.500000,53.000000 
	C107.877022,53.865665 105.167542,53.347301 102.500000,53.500000 
"/>
<path fill="none" opacity="1.000000" stroke="#000000" stroke-linecap="round" stroke-linejoin="round" stroke-width="3.000000"
	d="
M165.000000,37.500000 
	C159.056458,40.416687 156.644547,45.761673 159.529541,49.979794 
	C161.529114,52.903339 164.628571,54.485874 167.952759,53.360458 
	C170.873459,52.371639 173.436661,50.350895 173.546158,46.501312 
	C173.660202,42.492828 172.350220,39.518749 168.489059,38.028343 
	C167.562744,37.670784 166.500000,37.666668 165.500000,37.500000 
"/>
<path fill="none" opacity="1.000000" stroke="#000000" stroke-linecap="round" stroke-linejoin="round" stroke-width="3.000000"
	d="
M122.000000,37.500000 
	C116.449287,40.559467 115.471077,43.112457 116.367348,48.024208 
	C117.018814,51.594391 118.951653,52.952305 122.003883,53.477425 
	C125.463417,54.072613 127.908485,52.757183 129.547516,49.524090 
	C131.041550,46.577049 131.077240,43.671207 129.423660,41.048126 
	C127.935371,38.687271 125.515556,37.302219 122.500000,37.500000 
"/>
</svg>